%TF.GenerationSoftware,KiCad,Pcbnew,9.0.9-9.0.9~ubuntu22.04.1*%
%TF.CreationDate,2026-07-03T14:59:16+05:30*%
%TF.ProjectId,wef,7765662e-6b69-4636-9164-5f7063625858,rev?*%
%TF.SameCoordinates,Original*%
%TF.FileFunction,Copper,L2,Bot*%
%TF.FilePolarity,Positive*%
%FSLAX46Y46*%
G04 Gerber Fmt 4.6, Leading zero omitted, Abs format (unit mm)*
G04 Created by KiCad (PCBNEW 9.0.9-9.0.9~ubuntu22.04.1) date 2026-07-03 14:59:16*
%MOMM*%
%LPD*%
G01*
G04 APERTURE LIST*
%TA.AperFunction,ComponentPad*%
%ADD10C,1.600000*%
%TD*%
%TA.AperFunction,ComponentPad*%
%ADD11O,1.600000X1.600000*%
%TD*%
%TA.AperFunction,ComponentPad*%
%ADD12R,1.600000X1.600000*%
%TD*%
%TA.AperFunction,ComponentPad*%
%ADD13R,2.200000X2.200000*%
%TD*%
%TA.AperFunction,ComponentPad*%
%ADD14O,2.200000X2.200000*%
%TD*%
%TA.AperFunction,ComponentPad*%
%ADD15C,1.400000*%
%TD*%
%TA.AperFunction,ComponentPad*%
%ADD16O,1.400000X1.400000*%
%TD*%
%TA.AperFunction,ComponentPad*%
%ADD17R,1.905000X2.000000*%
%TD*%
%TA.AperFunction,ComponentPad*%
%ADD18O,1.905000X2.000000*%
%TD*%
%TA.AperFunction,WasherPad*%
%ADD19C,4.000000*%
%TD*%
%TA.AperFunction,ComponentPad*%
%ADD20C,1.800000*%
%TD*%
%TA.AperFunction,ComponentPad*%
%ADD21R,2.400000X2.400000*%
%TD*%
%TA.AperFunction,ComponentPad*%
%ADD22C,2.400000*%
%TD*%
%TA.AperFunction,ComponentPad*%
%ADD23R,3.000000X3.000000*%
%TD*%
%TA.AperFunction,ComponentPad*%
%ADD24C,3.000000*%
%TD*%
%TA.AperFunction,ComponentPad*%
%ADD25R,1.800000X1.800000*%
%TD*%
%TA.AperFunction,ViaPad*%
%ADD26C,0.800000*%
%TD*%
%TA.AperFunction,Conductor*%
%ADD27C,0.200000*%
%TD*%
%TA.AperFunction,Conductor*%
%ADD28C,0.250000*%
%TD*%
G04 APERTURE END LIST*
D10*
%TO.P,C1,1*%
%TO.N,Net-(100K1-Pad2)*%
X149860000Y-116720000D03*
D11*
%TO.P,C1,2*%
%TO.N,GND*%
X149860000Y-101720000D03*
%TD*%
D12*
%TO.P,U1,1,GND*%
%TO.N,GND*%
X133360000Y-85100000D03*
D11*
%TO.P,U1,2,TR*%
%TO.N,Net-(100K1-Pad2)*%
X133360000Y-87640000D03*
%TO.P,U1,3,Q*%
%TO.N,Net-(R2-Pad1)*%
X133360000Y-90180000D03*
%TO.P,U1,4,R*%
%TO.N,Net-(C3-Pad1)*%
X133360000Y-92720000D03*
%TO.P,U1,5,CV*%
%TO.N,Net-(C2-Pad1)*%
X140980000Y-92720000D03*
%TO.P,U1,6,THR*%
%TO.N,Net-(100K1-Pad2)*%
X140980000Y-90180000D03*
%TO.P,U1,7,DIS*%
%TO.N,Net-(D1-Pad2)*%
X140980000Y-87640000D03*
%TO.P,U1,8,VCC*%
%TO.N,Net-(C3-Pad1)*%
X140980000Y-85100000D03*
%TD*%
D13*
%TO.P,D1,1,K*%
%TO.N,Net-(100K1-Pad3)*%
X109220000Y-114300000D03*
D14*
%TO.P,D1,2,A*%
%TO.N,Net-(D1-Pad2)*%
X109220000Y-104140000D03*
%TD*%
D15*
%TO.P,R3,1*%
%TO.N,Net-(C3-Pad1)*%
X96320000Y-118360000D03*
D16*
%TO.P,R3,2*%
%TO.N,Net-(D4-Pad2)*%
X103940000Y-118360000D03*
%TD*%
D13*
%TO.P,D3,1,K*%
%TO.N,Net-(C3-Pad1)*%
X139700000Y-111760000D03*
D14*
%TO.P,D3,2,A*%
%TO.N,Net-(D3-Pad2)*%
X139700000Y-101600000D03*
%TD*%
D17*
%TO.P,Q1,1,B*%
%TO.N,Net-(Q1-Pad1)*%
X147320000Y-78740000D03*
D18*
%TO.P,Q1,2,C*%
%TO.N,Net-(D3-Pad2)*%
X149860000Y-78740000D03*
%TO.P,Q1,3,E*%
%TO.N,GND*%
X152400000Y-78740000D03*
%TD*%
D19*
%TO.P,100K1,*%
%TO.N,*%
X127330000Y-69345000D03*
X136830000Y-69345000D03*
D20*
%TO.P,100K1,1,1*%
%TO.N,Net-(100K1-Pad1)*%
X134580000Y-76845000D03*
%TO.P,100K1,2,2*%
%TO.N,Net-(100K1-Pad2)*%
X132080000Y-76845000D03*
%TO.P,100K1,3,3*%
%TO.N,Net-(100K1-Pad3)*%
X129580000Y-76845000D03*
%TD*%
D21*
%TO.P,C3,1*%
%TO.N,Net-(C3-Pad1)*%
X114300000Y-91440000D03*
D22*
%TO.P,C3,2*%
%TO.N,GND*%
X114300000Y-86440000D03*
%TD*%
D23*
%TO.P,J2,1,Pin_1*%
%TO.N,Net-(C3-Pad1)*%
X162560000Y-93980000D03*
D24*
%TO.P,J2,2,Pin_2*%
%TO.N,Net-(D3-Pad2)*%
X162560000Y-88900000D03*
%TD*%
D13*
%TO.P,D2,1,K*%
%TO.N,Net-(D1-Pad2)*%
X116840000Y-114300000D03*
D14*
%TO.P,D2,2,A*%
%TO.N,Net-(100K1-Pad1)*%
X116840000Y-104140000D03*
%TD*%
D15*
%TO.P,R1,1*%
%TO.N,Net-(C3-Pad1)*%
X101600000Y-110490000D03*
D16*
%TO.P,R1,2*%
%TO.N,Net-(D1-Pad2)*%
X101600000Y-102870000D03*
%TD*%
D23*
%TO.P,J1,1,Pin_1*%
%TO.N,GND*%
X99060000Y-96520000D03*
D24*
%TO.P,J1,2,Pin_2*%
%TO.N,Net-(C3-Pad1)*%
X99060000Y-91440000D03*
%TD*%
D10*
%TO.P,C2,1*%
%TO.N,Net-(C2-Pad1)*%
X129540000Y-119380000D03*
D11*
%TO.P,C2,2*%
%TO.N,GND*%
X129540000Y-104380000D03*
%TD*%
D25*
%TO.P,D4,1,K*%
%TO.N,GND*%
X147320000Y-93980000D03*
D20*
%TO.P,D4,2,A*%
%TO.N,Net-(D4-Pad2)*%
X149860000Y-93980000D03*
%TD*%
D15*
%TO.P,R2,1*%
%TO.N,Net-(R2-Pad1)*%
X96520000Y-110490000D03*
D16*
%TO.P,R2,2*%
%TO.N,Net-(Q1-Pad1)*%
X96520000Y-102870000D03*
%TD*%
D26*
%TO.N,Net-(100K1-Pad1)*%
X114300000Y-116840000D03*
X167640000Y-111760000D03*
%TO.N,GND*%
X144780000Y-83820000D03*
%TO.N,Net-(C2-Pad1)*%
X134620000Y-99060000D03*
%TO.N,Net-(C3-Pad1)*%
X137160000Y-88900000D03*
%TD*%
D27*
%TO.N,Net-(100K1-Pad1)*%
X154940000Y-124460000D02*
X167640000Y-111760000D01*
X114300000Y-121920000D02*
X116840000Y-124460000D01*
X116840000Y-124460000D02*
X119380000Y-124460000D01*
X114300000Y-116840000D02*
X114300000Y-121920000D01*
X119380000Y-124460000D02*
X154940000Y-124460000D01*
%TO.N,Net-(100K1-Pad2)*%
X132080000Y-76845000D02*
X132080000Y-86360000D01*
X133360000Y-87640000D02*
X134620000Y-86380000D01*
X134620000Y-86380000D02*
X134620000Y-86360000D01*
X132080000Y-86360000D02*
X133360000Y-87640000D01*
X137160000Y-86360000D02*
X140980000Y-90180000D01*
X134620000Y-86360000D02*
X137160000Y-86360000D01*
D28*
%TO.N,Net-(100K1-Pad3)*%
X114300000Y-111760000D02*
X111760000Y-114300000D01*
X114300000Y-102870000D02*
X114300000Y-111760000D01*
X129580000Y-76845000D02*
X129580000Y-87590000D01*
X111760000Y-114300000D02*
X109220000Y-114300000D01*
X129580000Y-87590000D02*
X114300000Y-102870000D01*
%TO.N,GND*%
X142240000Y-116840000D02*
X137160000Y-116840000D01*
X99060000Y-96520000D02*
X104220000Y-96520000D01*
X149860000Y-109220000D02*
X142240000Y-116840000D01*
X133360000Y-85100000D02*
X133360000Y-82540000D01*
X134620000Y-81280000D02*
X142240000Y-81280000D01*
X127000000Y-121920000D02*
X121920000Y-116840000D01*
X147320000Y-93980000D02*
X147320000Y-99060000D01*
X133360000Y-82540000D02*
X134620000Y-81280000D01*
X152400000Y-88900000D02*
X147320000Y-93980000D01*
X152400000Y-78740000D02*
X152400000Y-88900000D01*
X137160000Y-116840000D02*
X132080000Y-121920000D01*
X121920000Y-116840000D02*
X129540000Y-109220000D01*
X132080000Y-121920000D02*
X127000000Y-121920000D01*
X142240000Y-81280000D02*
X144780000Y-83820000D01*
X104220000Y-96520000D02*
X114300000Y-86440000D01*
X129540000Y-109220000D02*
X129540000Y-104380000D01*
X147320000Y-99060000D02*
X149860000Y-101600000D01*
X149860000Y-101600000D02*
X149860000Y-109220000D01*
D27*
%TO.N,Net-(C2-Pad1)*%
X140980000Y-95240000D02*
X140980000Y-92720000D01*
X137160000Y-96520000D02*
X139700000Y-96520000D01*
X134620000Y-99060000D02*
X137160000Y-96520000D01*
X139700000Y-96520000D02*
X140980000Y-95240000D01*
D28*
%TO.N,Net-(C3-Pad1)*%
X96320000Y-115770000D02*
X96320000Y-118360000D01*
X101600000Y-110490000D02*
X96320000Y-115770000D01*
X137160000Y-88920000D02*
X137160000Y-88900000D01*
X133360000Y-92720000D02*
X137160000Y-88920000D01*
D27*
%TO.N,Net-(D1-Pad2)*%
X109220000Y-104140000D02*
X106680000Y-104140000D01*
X111760000Y-116840000D02*
X114300000Y-114300000D01*
X114300000Y-114300000D02*
X116840000Y-114300000D01*
D28*
X102870000Y-104140000D02*
X101600000Y-102870000D01*
D27*
X104140000Y-106680000D02*
X104140000Y-114300000D01*
D28*
X109220000Y-104140000D02*
X102870000Y-104140000D01*
D27*
X106680000Y-104140000D02*
X104140000Y-106680000D01*
X104140000Y-114300000D02*
X106680000Y-116840000D01*
X106680000Y-116840000D02*
X111760000Y-116840000D01*
D28*
%TO.N,Net-(D3-Pad2)*%
X148635489Y-85044511D02*
X144780000Y-88900000D01*
X139700000Y-101600000D02*
X127000000Y-101600000D01*
X142240000Y-101600000D02*
X139700000Y-101600000D01*
X119380000Y-109220000D02*
X119380000Y-116840000D01*
X127000000Y-101600000D02*
X119380000Y-109220000D01*
X157480000Y-73660000D02*
X154940000Y-73660000D01*
X162560000Y-88900000D02*
X162560000Y-78740000D01*
X154940000Y-73660000D02*
X149860000Y-78740000D01*
X165100000Y-88900000D02*
X162560000Y-88900000D01*
X119380000Y-116840000D02*
X124909520Y-122369520D01*
X144780000Y-99060000D02*
X142240000Y-101600000D01*
X151950480Y-122369520D02*
X170180000Y-104140000D01*
X124909520Y-122369520D02*
X151950480Y-122369520D01*
X149860000Y-78740000D02*
X148635489Y-79964511D01*
X144780000Y-88900000D02*
X144780000Y-99060000D01*
X162560000Y-78740000D02*
X157480000Y-73660000D01*
X148635489Y-79964511D02*
X148635489Y-85044511D01*
X170180000Y-104140000D02*
X170180000Y-93980000D01*
X170180000Y-93980000D02*
X165100000Y-88900000D01*
%TO.N,Net-(Q1-Pad1)*%
X147320000Y-76200000D02*
X147320000Y-78740000D01*
X93980000Y-83820000D02*
X104140000Y-73660000D01*
X104140000Y-73660000D02*
X144780000Y-73660000D01*
X144780000Y-73660000D02*
X147320000Y-76200000D01*
X95250000Y-102870000D02*
X93980000Y-101600000D01*
X93980000Y-101600000D02*
X93980000Y-83820000D01*
X96520000Y-102870000D02*
X95250000Y-102870000D01*
%TD*%
M02*
