%TF.GenerationSoftware,KiCad,Pcbnew,9.0.9-9.0.9~ubuntu22.04.1*%
%TF.CreationDate,2026-07-03T14:59:16+05:30*%
%TF.ProjectId,wef,7765662e-6b69-4636-9164-5f7063625858,rev?*%
%TF.SameCoordinates,Original*%
%TF.FileFunction,Soldermask,Top*%
%TF.FilePolarity,Negative*%
%FSLAX46Y46*%
G04 Gerber Fmt 4.6, Leading zero omitted, Abs format (unit mm)*
G04 Created by KiCad (PCBNEW 9.0.9-9.0.9~ubuntu22.04.1) date 2026-07-03 14:59:16*
%MOMM*%
%LPD*%
G01*
G04 APERTURE LIST*
%ADD10C,1.600000*%
%ADD11O,1.600000X1.600000*%
%ADD12R,1.600000X1.600000*%
%ADD13R,2.200000X2.200000*%
%ADD14O,2.200000X2.200000*%
%ADD15C,1.400000*%
%ADD16O,1.400000X1.400000*%
%ADD17R,1.905000X2.000000*%
%ADD18O,1.905000X2.000000*%
%ADD19C,4.000000*%
%ADD20C,1.800000*%
%ADD21R,2.400000X2.400000*%
%ADD22C,2.400000*%
%ADD23R,3.000000X3.000000*%
%ADD24C,3.000000*%
%ADD25R,1.800000X1.800000*%
G04 APERTURE END LIST*
D10*
%TO.C,C1*%
X149860000Y-116720000D03*
D11*
X149860000Y-101720000D03*
%TD*%
D12*
%TO.C,U1*%
X133360000Y-85100000D03*
D11*
X133360000Y-87640000D03*
X133360000Y-90180000D03*
X133360000Y-92720000D03*
X140980000Y-92720000D03*
X140980000Y-90180000D03*
X140980000Y-87640000D03*
X140980000Y-85100000D03*
%TD*%
D13*
%TO.C,D1*%
X109220000Y-114300000D03*
D14*
X109220000Y-104140000D03*
%TD*%
D15*
%TO.C,R3*%
X96320000Y-118360000D03*
D16*
X103940000Y-118360000D03*
%TD*%
D13*
%TO.C,D3*%
X139700000Y-111760000D03*
D14*
X139700000Y-101600000D03*
%TD*%
D17*
%TO.C,Q1*%
X147320000Y-78740000D03*
D18*
X149860000Y-78740000D03*
X152400000Y-78740000D03*
%TD*%
D19*
%TO.C,100K1*%
X127330000Y-69345000D03*
X136830000Y-69345000D03*
D20*
X134580000Y-76845000D03*
X132080000Y-76845000D03*
X129580000Y-76845000D03*
%TD*%
D21*
%TO.C,C3*%
X114300000Y-91440000D03*
D22*
X114300000Y-86440000D03*
%TD*%
D23*
%TO.C,J2*%
X162560000Y-93980000D03*
D24*
X162560000Y-88900000D03*
%TD*%
D13*
%TO.C,D2*%
X116840000Y-114300000D03*
D14*
X116840000Y-104140000D03*
%TD*%
D15*
%TO.C,R1*%
X101600000Y-110490000D03*
D16*
X101600000Y-102870000D03*
%TD*%
D23*
%TO.C,J1*%
X99060000Y-96520000D03*
D24*
X99060000Y-91440000D03*
%TD*%
D10*
%TO.C,C2*%
X129540000Y-119380000D03*
D11*
X129540000Y-104380000D03*
%TD*%
D25*
%TO.C,D4*%
X147320000Y-93980000D03*
D20*
X149860000Y-93980000D03*
%TD*%
D15*
%TO.C,R2*%
X96520000Y-110490000D03*
D16*
X96520000Y-102870000D03*
%TD*%
M02*
