M48
; DRILL file {KiCad 9.0.9-9.0.9~ubuntu22.04.1} date 2026-07-03T14:58:44+0530
; FORMAT={-:-/ absolute / metric / decimal}
; #@! TF.CreationDate,2026-07-03T14:58:44+05:30
; #@! TF.GenerationSoftware,Kicad,Pcbnew,9.0.9-9.0.9~ubuntu22.04.1
; #@! TF.FileFunction,Plated,1,2,PTH
FMAT,2
METRIC
; #@! TA.AperFunction,Plated,PTH,ViaDrill
T1C0.400
; #@! TA.AperFunction,Plated,PTH,ComponentDrill
T2C0.700
; #@! TA.AperFunction,Plated,PTH,ComponentDrill
T3C0.800
; #@! TA.AperFunction,Plated,PTH,ComponentDrill
T4C0.900
; #@! TA.AperFunction,Plated,PTH,ComponentDrill
T5C1.000
; #@! TA.AperFunction,Plated,PTH,ComponentDrill
T6C1.100
; #@! TA.AperFunction,Plated,PTH,ComponentDrill
T7C1.200
; #@! TA.AperFunction,Plated,PTH,ComponentDrill
T8C1.520
%
G90
G05
T1
X114.3Y-116.84
X134.62Y-99.06
X137.16Y-88.9
X144.78Y-83.82
X167.64Y-111.76
T2
X96.32Y-118.36
X96.52Y-102.87
X96.52Y-110.49
X101.6Y-102.87
X101.6Y-110.49
X103.94Y-118.36
T3
X129.54Y-104.38
X129.54Y-119.38
X133.36Y-85.1
X133.36Y-87.64
X133.36Y-90.18
X133.36Y-92.72
X140.98Y-85.1
X140.98Y-87.64
X140.98Y-90.18
X140.98Y-92.72
X149.86Y-101.72
X149.86Y-116.72
T4
X147.32Y-93.98
X149.86Y-93.98
T5
X129.58Y-76.845
X132.08Y-76.845
X134.58Y-76.845
T6
X109.22Y-104.14
X109.22Y-114.3
X116.84Y-104.14
X116.84Y-114.3
X139.7Y-101.6
X139.7Y-111.76
X147.32Y-78.74
X149.86Y-78.74
X152.4Y-78.74
T7
X114.3Y-86.44
X114.3Y-91.44
T8
X99.06Y-91.44
X99.06Y-96.52
X162.56Y-88.9
X162.56Y-93.98
M30
