%TF.GenerationSoftware,KiCad,Pcbnew,9.0.9-9.0.9~ubuntu22.04.1*%
%TF.CreationDate,2026-07-03T14:59:16+05:30*%
%TF.ProjectId,wef,7765662e-6b69-4636-9164-5f7063625858,rev?*%
%TF.SameCoordinates,Original*%
%TF.FileFunction,Legend,Top*%
%TF.FilePolarity,Positive*%
%FSLAX46Y46*%
G04 Gerber Fmt 4.6, Leading zero omitted, Abs format (unit mm)*
G04 Created by KiCad (PCBNEW 9.0.9-9.0.9~ubuntu22.04.1) date 2026-07-03 14:59:16*
%MOMM*%
%LPD*%
G01*
G04 APERTURE LIST*
%ADD10C,0.150000*%
%ADD11C,0.120000*%
G04 APERTURE END LIST*
D10*
X145849580Y-109386666D02*
X145897200Y-109434285D01*
X145897200Y-109434285D02*
X145944819Y-109577142D01*
X145944819Y-109577142D02*
X145944819Y-109672380D01*
X145944819Y-109672380D02*
X145897200Y-109815237D01*
X145897200Y-109815237D02*
X145801961Y-109910475D01*
X145801961Y-109910475D02*
X145706723Y-109958094D01*
X145706723Y-109958094D02*
X145516247Y-110005713D01*
X145516247Y-110005713D02*
X145373390Y-110005713D01*
X145373390Y-110005713D02*
X145182914Y-109958094D01*
X145182914Y-109958094D02*
X145087676Y-109910475D01*
X145087676Y-109910475D02*
X144992438Y-109815237D01*
X144992438Y-109815237D02*
X144944819Y-109672380D01*
X144944819Y-109672380D02*
X144944819Y-109577142D01*
X144944819Y-109577142D02*
X144992438Y-109434285D01*
X144992438Y-109434285D02*
X145040057Y-109386666D01*
X145944819Y-108434285D02*
X145944819Y-109005713D01*
X145944819Y-108719999D02*
X144944819Y-108719999D01*
X144944819Y-108719999D02*
X145087676Y-108815237D01*
X145087676Y-108815237D02*
X145182914Y-108910475D01*
X145182914Y-108910475D02*
X145230533Y-109005713D01*
X136408095Y-82224819D02*
X136408095Y-83034342D01*
X136408095Y-83034342D02*
X136455714Y-83129580D01*
X136455714Y-83129580D02*
X136503333Y-83177200D01*
X136503333Y-83177200D02*
X136598571Y-83224819D01*
X136598571Y-83224819D02*
X136789047Y-83224819D01*
X136789047Y-83224819D02*
X136884285Y-83177200D01*
X136884285Y-83177200D02*
X136931904Y-83129580D01*
X136931904Y-83129580D02*
X136979523Y-83034342D01*
X136979523Y-83034342D02*
X136979523Y-82224819D01*
X137979523Y-83224819D02*
X137408095Y-83224819D01*
X137693809Y-83224819D02*
X137693809Y-82224819D01*
X137693809Y-82224819D02*
X137598571Y-82367676D01*
X137598571Y-82367676D02*
X137503333Y-82462914D01*
X137503333Y-82462914D02*
X137408095Y-82510533D01*
X107204819Y-109958094D02*
X106204819Y-109958094D01*
X106204819Y-109958094D02*
X106204819Y-109719999D01*
X106204819Y-109719999D02*
X106252438Y-109577142D01*
X106252438Y-109577142D02*
X106347676Y-109481904D01*
X106347676Y-109481904D02*
X106442914Y-109434285D01*
X106442914Y-109434285D02*
X106633390Y-109386666D01*
X106633390Y-109386666D02*
X106776247Y-109386666D01*
X106776247Y-109386666D02*
X106966723Y-109434285D01*
X106966723Y-109434285D02*
X107061961Y-109481904D01*
X107061961Y-109481904D02*
X107157200Y-109577142D01*
X107157200Y-109577142D02*
X107204819Y-109719999D01*
X107204819Y-109719999D02*
X107204819Y-109958094D01*
X107204819Y-108434285D02*
X107204819Y-109005713D01*
X107204819Y-108719999D02*
X106204819Y-108719999D01*
X106204819Y-108719999D02*
X106347676Y-108815237D01*
X106347676Y-108815237D02*
X106442914Y-108910475D01*
X106442914Y-108910475D02*
X106490533Y-109005713D01*
X107574819Y-114561904D02*
X106574819Y-114561904D01*
X107574819Y-113990476D02*
X107003390Y-114419047D01*
X106574819Y-113990476D02*
X107146247Y-114561904D01*
X99963333Y-116894819D02*
X99630000Y-116418628D01*
X99391905Y-116894819D02*
X99391905Y-115894819D01*
X99391905Y-115894819D02*
X99772857Y-115894819D01*
X99772857Y-115894819D02*
X99868095Y-115942438D01*
X99868095Y-115942438D02*
X99915714Y-115990057D01*
X99915714Y-115990057D02*
X99963333Y-116085295D01*
X99963333Y-116085295D02*
X99963333Y-116228152D01*
X99963333Y-116228152D02*
X99915714Y-116323390D01*
X99915714Y-116323390D02*
X99868095Y-116371009D01*
X99868095Y-116371009D02*
X99772857Y-116418628D01*
X99772857Y-116418628D02*
X99391905Y-116418628D01*
X100296667Y-115894819D02*
X100915714Y-115894819D01*
X100915714Y-115894819D02*
X100582381Y-116275771D01*
X100582381Y-116275771D02*
X100725238Y-116275771D01*
X100725238Y-116275771D02*
X100820476Y-116323390D01*
X100820476Y-116323390D02*
X100868095Y-116371009D01*
X100868095Y-116371009D02*
X100915714Y-116466247D01*
X100915714Y-116466247D02*
X100915714Y-116704342D01*
X100915714Y-116704342D02*
X100868095Y-116799580D01*
X100868095Y-116799580D02*
X100820476Y-116847200D01*
X100820476Y-116847200D02*
X100725238Y-116894819D01*
X100725238Y-116894819D02*
X100439524Y-116894819D01*
X100439524Y-116894819D02*
X100344286Y-116847200D01*
X100344286Y-116847200D02*
X100296667Y-116799580D01*
X137684819Y-107418094D02*
X136684819Y-107418094D01*
X136684819Y-107418094D02*
X136684819Y-107179999D01*
X136684819Y-107179999D02*
X136732438Y-107037142D01*
X136732438Y-107037142D02*
X136827676Y-106941904D01*
X136827676Y-106941904D02*
X136922914Y-106894285D01*
X136922914Y-106894285D02*
X137113390Y-106846666D01*
X137113390Y-106846666D02*
X137256247Y-106846666D01*
X137256247Y-106846666D02*
X137446723Y-106894285D01*
X137446723Y-106894285D02*
X137541961Y-106941904D01*
X137541961Y-106941904D02*
X137637200Y-107037142D01*
X137637200Y-107037142D02*
X137684819Y-107179999D01*
X137684819Y-107179999D02*
X137684819Y-107418094D01*
X136684819Y-106513332D02*
X136684819Y-105894285D01*
X136684819Y-105894285D02*
X137065771Y-106227618D01*
X137065771Y-106227618D02*
X137065771Y-106084761D01*
X137065771Y-106084761D02*
X137113390Y-105989523D01*
X137113390Y-105989523D02*
X137161009Y-105941904D01*
X137161009Y-105941904D02*
X137256247Y-105894285D01*
X137256247Y-105894285D02*
X137494342Y-105894285D01*
X137494342Y-105894285D02*
X137589580Y-105941904D01*
X137589580Y-105941904D02*
X137637200Y-105989523D01*
X137637200Y-105989523D02*
X137684819Y-106084761D01*
X137684819Y-106084761D02*
X137684819Y-106370475D01*
X137684819Y-106370475D02*
X137637200Y-106465713D01*
X137637200Y-106465713D02*
X137589580Y-106513332D01*
X138054819Y-112021904D02*
X137054819Y-112021904D01*
X138054819Y-111450476D02*
X137483390Y-111879047D01*
X137054819Y-111450476D02*
X137626247Y-112021904D01*
X149764761Y-75020057D02*
X149669523Y-74972438D01*
X149669523Y-74972438D02*
X149574285Y-74877200D01*
X149574285Y-74877200D02*
X149431428Y-74734342D01*
X149431428Y-74734342D02*
X149336190Y-74686723D01*
X149336190Y-74686723D02*
X149240952Y-74686723D01*
X149288571Y-74924819D02*
X149193333Y-74877200D01*
X149193333Y-74877200D02*
X149098095Y-74781961D01*
X149098095Y-74781961D02*
X149050476Y-74591485D01*
X149050476Y-74591485D02*
X149050476Y-74258152D01*
X149050476Y-74258152D02*
X149098095Y-74067676D01*
X149098095Y-74067676D02*
X149193333Y-73972438D01*
X149193333Y-73972438D02*
X149288571Y-73924819D01*
X149288571Y-73924819D02*
X149479047Y-73924819D01*
X149479047Y-73924819D02*
X149574285Y-73972438D01*
X149574285Y-73972438D02*
X149669523Y-74067676D01*
X149669523Y-74067676D02*
X149717142Y-74258152D01*
X149717142Y-74258152D02*
X149717142Y-74591485D01*
X149717142Y-74591485D02*
X149669523Y-74781961D01*
X149669523Y-74781961D02*
X149574285Y-74877200D01*
X149574285Y-74877200D02*
X149479047Y-74924819D01*
X149479047Y-74924819D02*
X149288571Y-74924819D01*
X150669523Y-74924819D02*
X150098095Y-74924819D01*
X150383809Y-74924819D02*
X150383809Y-73924819D01*
X150383809Y-73924819D02*
X150288571Y-74067676D01*
X150288571Y-74067676D02*
X150193333Y-74162914D01*
X150193333Y-74162914D02*
X150098095Y-74210533D01*
X124534819Y-72762857D02*
X124534819Y-73334285D01*
X124534819Y-73048571D02*
X123534819Y-73048571D01*
X123534819Y-73048571D02*
X123677676Y-73143809D01*
X123677676Y-73143809D02*
X123772914Y-73239047D01*
X123772914Y-73239047D02*
X123820533Y-73334285D01*
X123534819Y-72143809D02*
X123534819Y-72048571D01*
X123534819Y-72048571D02*
X123582438Y-71953333D01*
X123582438Y-71953333D02*
X123630057Y-71905714D01*
X123630057Y-71905714D02*
X123725295Y-71858095D01*
X123725295Y-71858095D02*
X123915771Y-71810476D01*
X123915771Y-71810476D02*
X124153866Y-71810476D01*
X124153866Y-71810476D02*
X124344342Y-71858095D01*
X124344342Y-71858095D02*
X124439580Y-71905714D01*
X124439580Y-71905714D02*
X124487200Y-71953333D01*
X124487200Y-71953333D02*
X124534819Y-72048571D01*
X124534819Y-72048571D02*
X124534819Y-72143809D01*
X124534819Y-72143809D02*
X124487200Y-72239047D01*
X124487200Y-72239047D02*
X124439580Y-72286666D01*
X124439580Y-72286666D02*
X124344342Y-72334285D01*
X124344342Y-72334285D02*
X124153866Y-72381904D01*
X124153866Y-72381904D02*
X123915771Y-72381904D01*
X123915771Y-72381904D02*
X123725295Y-72334285D01*
X123725295Y-72334285D02*
X123630057Y-72286666D01*
X123630057Y-72286666D02*
X123582438Y-72239047D01*
X123582438Y-72239047D02*
X123534819Y-72143809D01*
X123534819Y-71191428D02*
X123534819Y-71096190D01*
X123534819Y-71096190D02*
X123582438Y-71000952D01*
X123582438Y-71000952D02*
X123630057Y-70953333D01*
X123630057Y-70953333D02*
X123725295Y-70905714D01*
X123725295Y-70905714D02*
X123915771Y-70858095D01*
X123915771Y-70858095D02*
X124153866Y-70858095D01*
X124153866Y-70858095D02*
X124344342Y-70905714D01*
X124344342Y-70905714D02*
X124439580Y-70953333D01*
X124439580Y-70953333D02*
X124487200Y-71000952D01*
X124487200Y-71000952D02*
X124534819Y-71096190D01*
X124534819Y-71096190D02*
X124534819Y-71191428D01*
X124534819Y-71191428D02*
X124487200Y-71286666D01*
X124487200Y-71286666D02*
X124439580Y-71334285D01*
X124439580Y-71334285D02*
X124344342Y-71381904D01*
X124344342Y-71381904D02*
X124153866Y-71429523D01*
X124153866Y-71429523D02*
X123915771Y-71429523D01*
X123915771Y-71429523D02*
X123725295Y-71381904D01*
X123725295Y-71381904D02*
X123630057Y-71334285D01*
X123630057Y-71334285D02*
X123582438Y-71286666D01*
X123582438Y-71286666D02*
X123534819Y-71191428D01*
X124534819Y-70429523D02*
X123534819Y-70429523D01*
X124534819Y-69858095D02*
X123963390Y-70286666D01*
X123534819Y-69858095D02*
X124106247Y-70429523D01*
X124534819Y-68905714D02*
X124534819Y-69477142D01*
X124534819Y-69191428D02*
X123534819Y-69191428D01*
X123534819Y-69191428D02*
X123677676Y-69286666D01*
X123677676Y-69286666D02*
X123772914Y-69381904D01*
X123772914Y-69381904D02*
X123820533Y-69477142D01*
X106409580Y-89106666D02*
X106457200Y-89154285D01*
X106457200Y-89154285D02*
X106504819Y-89297142D01*
X106504819Y-89297142D02*
X106504819Y-89392380D01*
X106504819Y-89392380D02*
X106457200Y-89535237D01*
X106457200Y-89535237D02*
X106361961Y-89630475D01*
X106361961Y-89630475D02*
X106266723Y-89678094D01*
X106266723Y-89678094D02*
X106076247Y-89725713D01*
X106076247Y-89725713D02*
X105933390Y-89725713D01*
X105933390Y-89725713D02*
X105742914Y-89678094D01*
X105742914Y-89678094D02*
X105647676Y-89630475D01*
X105647676Y-89630475D02*
X105552438Y-89535237D01*
X105552438Y-89535237D02*
X105504819Y-89392380D01*
X105504819Y-89392380D02*
X105504819Y-89297142D01*
X105504819Y-89297142D02*
X105552438Y-89154285D01*
X105552438Y-89154285D02*
X105600057Y-89106666D01*
X105504819Y-88773332D02*
X105504819Y-88154285D01*
X105504819Y-88154285D02*
X105885771Y-88487618D01*
X105885771Y-88487618D02*
X105885771Y-88344761D01*
X105885771Y-88344761D02*
X105933390Y-88249523D01*
X105933390Y-88249523D02*
X105981009Y-88201904D01*
X105981009Y-88201904D02*
X106076247Y-88154285D01*
X106076247Y-88154285D02*
X106314342Y-88154285D01*
X106314342Y-88154285D02*
X106409580Y-88201904D01*
X106409580Y-88201904D02*
X106457200Y-88249523D01*
X106457200Y-88249523D02*
X106504819Y-88344761D01*
X106504819Y-88344761D02*
X106504819Y-88630475D01*
X106504819Y-88630475D02*
X106457200Y-88725713D01*
X106457200Y-88725713D02*
X106409580Y-88773332D01*
X156934819Y-91773333D02*
X157649104Y-91773333D01*
X157649104Y-91773333D02*
X157791961Y-91820952D01*
X157791961Y-91820952D02*
X157887200Y-91916190D01*
X157887200Y-91916190D02*
X157934819Y-92059047D01*
X157934819Y-92059047D02*
X157934819Y-92154285D01*
X157030057Y-91344761D02*
X156982438Y-91297142D01*
X156982438Y-91297142D02*
X156934819Y-91201904D01*
X156934819Y-91201904D02*
X156934819Y-90963809D01*
X156934819Y-90963809D02*
X156982438Y-90868571D01*
X156982438Y-90868571D02*
X157030057Y-90820952D01*
X157030057Y-90820952D02*
X157125295Y-90773333D01*
X157125295Y-90773333D02*
X157220533Y-90773333D01*
X157220533Y-90773333D02*
X157363390Y-90820952D01*
X157363390Y-90820952D02*
X157934819Y-91392380D01*
X157934819Y-91392380D02*
X157934819Y-90773333D01*
X114824819Y-109958094D02*
X113824819Y-109958094D01*
X113824819Y-109958094D02*
X113824819Y-109719999D01*
X113824819Y-109719999D02*
X113872438Y-109577142D01*
X113872438Y-109577142D02*
X113967676Y-109481904D01*
X113967676Y-109481904D02*
X114062914Y-109434285D01*
X114062914Y-109434285D02*
X114253390Y-109386666D01*
X114253390Y-109386666D02*
X114396247Y-109386666D01*
X114396247Y-109386666D02*
X114586723Y-109434285D01*
X114586723Y-109434285D02*
X114681961Y-109481904D01*
X114681961Y-109481904D02*
X114777200Y-109577142D01*
X114777200Y-109577142D02*
X114824819Y-109719999D01*
X114824819Y-109719999D02*
X114824819Y-109958094D01*
X113920057Y-109005713D02*
X113872438Y-108958094D01*
X113872438Y-108958094D02*
X113824819Y-108862856D01*
X113824819Y-108862856D02*
X113824819Y-108624761D01*
X113824819Y-108624761D02*
X113872438Y-108529523D01*
X113872438Y-108529523D02*
X113920057Y-108481904D01*
X113920057Y-108481904D02*
X114015295Y-108434285D01*
X114015295Y-108434285D02*
X114110533Y-108434285D01*
X114110533Y-108434285D02*
X114253390Y-108481904D01*
X114253390Y-108481904D02*
X114824819Y-109053332D01*
X114824819Y-109053332D02*
X114824819Y-108434285D01*
X115194819Y-114561904D02*
X114194819Y-114561904D01*
X115194819Y-113990476D02*
X114623390Y-114419047D01*
X114194819Y-113990476D02*
X114766247Y-114561904D01*
X100134819Y-106846666D02*
X99658628Y-107179999D01*
X100134819Y-107418094D02*
X99134819Y-107418094D01*
X99134819Y-107418094D02*
X99134819Y-107037142D01*
X99134819Y-107037142D02*
X99182438Y-106941904D01*
X99182438Y-106941904D02*
X99230057Y-106894285D01*
X99230057Y-106894285D02*
X99325295Y-106846666D01*
X99325295Y-106846666D02*
X99468152Y-106846666D01*
X99468152Y-106846666D02*
X99563390Y-106894285D01*
X99563390Y-106894285D02*
X99611009Y-106941904D01*
X99611009Y-106941904D02*
X99658628Y-107037142D01*
X99658628Y-107037142D02*
X99658628Y-107418094D01*
X100134819Y-105894285D02*
X100134819Y-106465713D01*
X100134819Y-106179999D02*
X99134819Y-106179999D01*
X99134819Y-106179999D02*
X99277676Y-106275237D01*
X99277676Y-106275237D02*
X99372914Y-106370475D01*
X99372914Y-106370475D02*
X99420533Y-106465713D01*
X93434819Y-94313333D02*
X94149104Y-94313333D01*
X94149104Y-94313333D02*
X94291961Y-94360952D01*
X94291961Y-94360952D02*
X94387200Y-94456190D01*
X94387200Y-94456190D02*
X94434819Y-94599047D01*
X94434819Y-94599047D02*
X94434819Y-94694285D01*
X94434819Y-93313333D02*
X94434819Y-93884761D01*
X94434819Y-93599047D02*
X93434819Y-93599047D01*
X93434819Y-93599047D02*
X93577676Y-93694285D01*
X93577676Y-93694285D02*
X93672914Y-93789523D01*
X93672914Y-93789523D02*
X93720533Y-93884761D01*
X125529580Y-112046666D02*
X125577200Y-112094285D01*
X125577200Y-112094285D02*
X125624819Y-112237142D01*
X125624819Y-112237142D02*
X125624819Y-112332380D01*
X125624819Y-112332380D02*
X125577200Y-112475237D01*
X125577200Y-112475237D02*
X125481961Y-112570475D01*
X125481961Y-112570475D02*
X125386723Y-112618094D01*
X125386723Y-112618094D02*
X125196247Y-112665713D01*
X125196247Y-112665713D02*
X125053390Y-112665713D01*
X125053390Y-112665713D02*
X124862914Y-112618094D01*
X124862914Y-112618094D02*
X124767676Y-112570475D01*
X124767676Y-112570475D02*
X124672438Y-112475237D01*
X124672438Y-112475237D02*
X124624819Y-112332380D01*
X124624819Y-112332380D02*
X124624819Y-112237142D01*
X124624819Y-112237142D02*
X124672438Y-112094285D01*
X124672438Y-112094285D02*
X124720057Y-112046666D01*
X124720057Y-111665713D02*
X124672438Y-111618094D01*
X124672438Y-111618094D02*
X124624819Y-111522856D01*
X124624819Y-111522856D02*
X124624819Y-111284761D01*
X124624819Y-111284761D02*
X124672438Y-111189523D01*
X124672438Y-111189523D02*
X124720057Y-111141904D01*
X124720057Y-111141904D02*
X124815295Y-111094285D01*
X124815295Y-111094285D02*
X124910533Y-111094285D01*
X124910533Y-111094285D02*
X125053390Y-111141904D01*
X125053390Y-111141904D02*
X125624819Y-111713332D01*
X125624819Y-111713332D02*
X125624819Y-111094285D01*
X147851905Y-90474819D02*
X147851905Y-89474819D01*
X147851905Y-89474819D02*
X148090000Y-89474819D01*
X148090000Y-89474819D02*
X148232857Y-89522438D01*
X148232857Y-89522438D02*
X148328095Y-89617676D01*
X148328095Y-89617676D02*
X148375714Y-89712914D01*
X148375714Y-89712914D02*
X148423333Y-89903390D01*
X148423333Y-89903390D02*
X148423333Y-90046247D01*
X148423333Y-90046247D02*
X148375714Y-90236723D01*
X148375714Y-90236723D02*
X148328095Y-90331961D01*
X148328095Y-90331961D02*
X148232857Y-90427200D01*
X148232857Y-90427200D02*
X148090000Y-90474819D01*
X148090000Y-90474819D02*
X147851905Y-90474819D01*
X149280476Y-89808152D02*
X149280476Y-90474819D01*
X149042381Y-89427200D02*
X148804286Y-90141485D01*
X148804286Y-90141485D02*
X149423333Y-90141485D01*
X95054819Y-106846666D02*
X94578628Y-107179999D01*
X95054819Y-107418094D02*
X94054819Y-107418094D01*
X94054819Y-107418094D02*
X94054819Y-107037142D01*
X94054819Y-107037142D02*
X94102438Y-106941904D01*
X94102438Y-106941904D02*
X94150057Y-106894285D01*
X94150057Y-106894285D02*
X94245295Y-106846666D01*
X94245295Y-106846666D02*
X94388152Y-106846666D01*
X94388152Y-106846666D02*
X94483390Y-106894285D01*
X94483390Y-106894285D02*
X94531009Y-106941904D01*
X94531009Y-106941904D02*
X94578628Y-107037142D01*
X94578628Y-107037142D02*
X94578628Y-107418094D01*
X94150057Y-106465713D02*
X94102438Y-106418094D01*
X94102438Y-106418094D02*
X94054819Y-106322856D01*
X94054819Y-106322856D02*
X94054819Y-106084761D01*
X94054819Y-106084761D02*
X94102438Y-105989523D01*
X94102438Y-105989523D02*
X94150057Y-105941904D01*
X94150057Y-105941904D02*
X94245295Y-105894285D01*
X94245295Y-105894285D02*
X94340533Y-105894285D01*
X94340533Y-105894285D02*
X94483390Y-105941904D01*
X94483390Y-105941904D02*
X95054819Y-106513332D01*
X95054819Y-106513332D02*
X95054819Y-105894285D01*
D11*
%TO.C,C1*%
X153230000Y-103100000D02*
X146490000Y-103100000D01*
X153230000Y-115340000D02*
X153230000Y-103100000D01*
X149860000Y-102760000D02*
X149860000Y-103100000D01*
X149860000Y-115680000D02*
X149860000Y-115340000D01*
X146490000Y-115340000D02*
X153230000Y-115340000D01*
X146490000Y-103100000D02*
X146490000Y-115340000D01*
%TO.C,U1*%
X139820000Y-94050000D02*
X139820000Y-83770000D01*
X134520000Y-83770000D02*
X134520000Y-94050000D01*
X134520000Y-94050000D02*
X139820000Y-94050000D01*
X136170000Y-83770000D02*
X134520000Y-83770000D01*
X139820000Y-83770000D02*
X138170000Y-83770000D01*
X138170000Y-83770000D02*
G75*
G02*
X136170000Y-83770000I-1000000J0D01*
G01*
%TO.C,D1*%
X110690000Y-111940000D02*
X110690000Y-106500000D01*
X107750000Y-111940000D02*
X110690000Y-111940000D01*
X107750000Y-106500000D02*
X107750000Y-111940000D01*
X109220000Y-105480000D02*
X109220000Y-106500000D01*
X110690000Y-106500000D02*
X107750000Y-106500000D01*
X109220000Y-112960000D02*
X109220000Y-111940000D01*
X107750000Y-111040000D02*
X110690000Y-111040000D01*
X107750000Y-110920000D02*
X110690000Y-110920000D01*
X107750000Y-111160000D02*
X110690000Y-111160000D01*
%TO.C,R3*%
X98210000Y-119280000D02*
X102050000Y-119280000D01*
X102050000Y-117440000D02*
X98210000Y-117440000D01*
X103000000Y-118360000D02*
X102050000Y-118360000D01*
X102050000Y-119280000D02*
X102050000Y-117440000D01*
X97260000Y-118360000D02*
X98210000Y-118360000D01*
X98210000Y-117440000D02*
X98210000Y-119280000D01*
%TO.C,D3*%
X141170000Y-103960000D02*
X138230000Y-103960000D01*
X138230000Y-103960000D02*
X138230000Y-109400000D01*
X139700000Y-110420000D02*
X139700000Y-109400000D01*
X139700000Y-102940000D02*
X139700000Y-103960000D01*
X141170000Y-109400000D02*
X141170000Y-103960000D01*
X138230000Y-108500000D02*
X141170000Y-108500000D01*
X138230000Y-108380000D02*
X141170000Y-108380000D01*
X138230000Y-108620000D02*
X141170000Y-108620000D01*
X138230000Y-109400000D02*
X141170000Y-109400000D01*
%TO.C,Q1*%
X144740000Y-75470000D02*
X144740000Y-80111000D01*
X151711000Y-75470000D02*
X151711000Y-76980000D01*
X144740000Y-80111000D02*
X154980000Y-80111000D01*
X148010000Y-75470000D02*
X148010000Y-76980000D01*
X144740000Y-75470000D02*
X154980000Y-75470000D01*
X144740000Y-76980000D02*
X154980000Y-76980000D01*
X154980000Y-75470000D02*
X154980000Y-80111000D01*
%TO.C,100K1*%
X125910000Y-64375000D02*
X138250000Y-64375000D01*
X125910000Y-75965000D02*
X128709000Y-75965000D01*
X138250000Y-75965000D02*
X138250000Y-71299000D01*
X135450000Y-75965000D02*
X138250000Y-75965000D01*
X132951000Y-75965000D02*
X133710000Y-75965000D01*
X138250000Y-67390000D02*
X138250000Y-64375000D01*
X130451000Y-75965000D02*
X131210000Y-75965000D01*
X125910000Y-67390000D02*
X125910000Y-64375000D01*
X125910000Y-75965000D02*
X125910000Y-71299000D01*
%TO.C,C3*%
X107358000Y-87539000D02*
X112860000Y-87539000D01*
X108773000Y-84499000D02*
X119827000Y-84499000D01*
X108561000Y-84779000D02*
X120039000Y-84779000D01*
X115740000Y-85419000D02*
X120450000Y-85419000D01*
X107440000Y-87179000D02*
X112860000Y-87179000D01*
X115740000Y-87339000D02*
X121198000Y-87339000D01*
X107864000Y-85979000D02*
X112860000Y-85979000D01*
X109653000Y-83579000D02*
X118947000Y-83579000D01*
X110701000Y-82819000D02*
X117899000Y-82819000D01*
X107260000Y-88179000D02*
X121340000Y-88179000D01*
X107979000Y-85739000D02*
X112860000Y-85739000D01*
X115740000Y-86179000D02*
X120824000Y-86179000D01*
X107227000Y-88620000D02*
X121373000Y-88620000D01*
X109942000Y-83339000D02*
X118658000Y-83339000D01*
X107242000Y-88380000D02*
X121358000Y-88380000D01*
X112839000Y-81979000D02*
X115761000Y-81979000D01*
X115740000Y-87259000D02*
X121179000Y-87259000D01*
X115740000Y-87459000D02*
X121225000Y-87459000D01*
X108939000Y-84299000D02*
X119661000Y-84299000D01*
X108504000Y-84859000D02*
X120096000Y-84859000D01*
X107343000Y-87619000D02*
X112860000Y-87619000D01*
X107665000Y-86459000D02*
X112860000Y-86459000D01*
X111060000Y-82619000D02*
X117540000Y-82619000D01*
X108838000Y-84419000D02*
X119762000Y-84419000D01*
X109045000Y-84179000D02*
X119555000Y-84179000D01*
X115740000Y-86499000D02*
X120949000Y-86499000D01*
X115740000Y-86219000D02*
X120840000Y-86219000D01*
X108449000Y-84939000D02*
X120151000Y-84939000D01*
X109351000Y-83859000D02*
X119249000Y-83859000D01*
X110839000Y-82739000D02*
X117761000Y-82739000D01*
X110100000Y-83219000D02*
X118500000Y-83219000D01*
X107225000Y-88660000D02*
X121375000Y-88660000D01*
X107506000Y-86939000D02*
X112860000Y-86939000D01*
X115740000Y-87179000D02*
X121160000Y-87179000D01*
X112664000Y-82019000D02*
X115936000Y-82019000D01*
X115740000Y-87379000D02*
X121207000Y-87379000D01*
X115740000Y-85139000D02*
X120282000Y-85139000D01*
X115740000Y-86819000D02*
X121058000Y-86819000D01*
X109607000Y-83619000D02*
X118993000Y-83619000D01*
X109310000Y-83899000D02*
X119290000Y-83899000D01*
X107882000Y-85939000D02*
X112860000Y-85939000D01*
X109746000Y-83499000D02*
X118854000Y-83499000D01*
X111875000Y-82259000D02*
X116725000Y-82259000D01*
X107696000Y-86379000D02*
X112860000Y-86379000D01*
X110305000Y-96559543D02*
X110305000Y-95159543D01*
X108590000Y-84739000D02*
X120010000Y-84739000D01*
X110769000Y-82779000D02*
X117831000Y-82779000D01*
X109699000Y-83539000D02*
X118901000Y-83539000D01*
X108711000Y-84579000D02*
X119889000Y-84579000D01*
X115740000Y-87419000D02*
X121216000Y-87419000D01*
X115740000Y-86859000D02*
X121070000Y-86859000D01*
X107328000Y-87699000D02*
X112860000Y-87699000D01*
X115740000Y-85699000D02*
X120601000Y-85699000D01*
X108150000Y-85419000D02*
X112860000Y-85419000D01*
X115740000Y-85099000D02*
X120256000Y-85099000D01*
X115740000Y-85659000D02*
X120580000Y-85659000D01*
X112506000Y-82059000D02*
X116094000Y-82059000D01*
X115740000Y-86339000D02*
X120889000Y-86339000D01*
X115740000Y-86379000D02*
X120904000Y-86379000D01*
X107256000Y-88219000D02*
X121344000Y-88219000D01*
X115740000Y-87579000D02*
X121249000Y-87579000D01*
X115740000Y-86699000D02*
X121019000Y-86699000D01*
X107636000Y-86539000D02*
X112860000Y-86539000D01*
X107846000Y-86019000D02*
X112860000Y-86019000D01*
X107608000Y-86619000D02*
X112860000Y-86619000D01*
X115740000Y-85819000D02*
X120660000Y-85819000D01*
X108244000Y-85259000D02*
X112860000Y-85259000D01*
X108062000Y-85579000D02*
X112860000Y-85579000D01*
X107518000Y-86899000D02*
X112860000Y-86899000D01*
X115740000Y-86979000D02*
X121105000Y-86979000D01*
X107220000Y-88900000D02*
X121380000Y-88900000D01*
X109155000Y-84059000D02*
X119445000Y-84059000D01*
X115740000Y-87139000D02*
X121149000Y-87139000D01*
X113038000Y-81939000D02*
X115562000Y-81939000D01*
X108041000Y-85619000D02*
X112860000Y-85619000D01*
X107483000Y-87019000D02*
X112860000Y-87019000D01*
X108477000Y-84899000D02*
X120123000Y-84899000D01*
X108871000Y-84379000D02*
X119729000Y-84379000D01*
X110634000Y-82859000D02*
X117966000Y-82859000D01*
X115740000Y-85019000D02*
X120204000Y-85019000D01*
X107760000Y-86219000D02*
X112860000Y-86219000D01*
X107367000Y-87499000D02*
X112860000Y-87499000D01*
X115740000Y-85899000D02*
X120699000Y-85899000D01*
X111572000Y-82379000D02*
X117028000Y-82379000D01*
X108220000Y-85299000D02*
X112860000Y-85299000D01*
X115740000Y-86779000D02*
X121045000Y-86779000D01*
X109081000Y-84139000D02*
X119519000Y-84139000D01*
X107776000Y-86179000D02*
X112860000Y-86179000D01*
X107351000Y-87579000D02*
X112860000Y-87579000D01*
X108293000Y-85179000D02*
X112860000Y-85179000D01*
X107384000Y-87419000D02*
X112860000Y-87419000D01*
X115740000Y-85059000D02*
X120230000Y-85059000D01*
X108269000Y-85219000D02*
X112860000Y-85219000D01*
X107411000Y-87299000D02*
X112860000Y-87299000D01*
X111479000Y-82419000D02*
X117121000Y-82419000D01*
X111139000Y-82579000D02*
X117461000Y-82579000D01*
X109794000Y-83459000D02*
X118806000Y-83459000D01*
X107336000Y-87659000D02*
X112860000Y-87659000D01*
X107555000Y-86779000D02*
X112860000Y-86779000D01*
X115740000Y-86419000D02*
X120920000Y-86419000D01*
X107920000Y-85859000D02*
X112860000Y-85859000D01*
X115740000Y-86739000D02*
X121032000Y-86739000D01*
X111987000Y-82219000D02*
X116613000Y-82219000D01*
X115740000Y-87059000D02*
X121128000Y-87059000D01*
X113275000Y-81899000D02*
X115325000Y-81899000D01*
X107711000Y-86339000D02*
X112860000Y-86339000D01*
X107959000Y-85779000D02*
X112860000Y-85779000D01*
X107239000Y-88420000D02*
X121361000Y-88420000D01*
X108396000Y-85019000D02*
X112860000Y-85019000D01*
X108742000Y-84539000D02*
X119858000Y-84539000D01*
X108905000Y-84339000D02*
X119695000Y-84339000D01*
X109392000Y-83819000D02*
X119208000Y-83819000D01*
X107940000Y-85819000D02*
X112860000Y-85819000D01*
X108197000Y-85339000D02*
X112860000Y-85339000D01*
X109271000Y-83939000D02*
X119329000Y-83939000D01*
X110384000Y-83019000D02*
X118216000Y-83019000D01*
X107220000Y-88940000D02*
X121380000Y-88940000D01*
X108106000Y-85499000D02*
X112860000Y-85499000D01*
X107233000Y-88500000D02*
X121367000Y-88500000D01*
X111668000Y-82339000D02*
X116932000Y-82339000D01*
X107222000Y-88740000D02*
X121378000Y-88740000D01*
X107421000Y-87259000D02*
X112860000Y-87259000D01*
X107321000Y-87739000D02*
X112860000Y-87739000D01*
X112104000Y-82179000D02*
X116496000Y-82179000D01*
X115740000Y-85379000D02*
X120427000Y-85379000D01*
X115740000Y-85179000D02*
X120307000Y-85179000D01*
X107221000Y-88780000D02*
X121379000Y-88780000D01*
X115740000Y-87299000D02*
X121189000Y-87299000D01*
X108370000Y-85059000D02*
X112860000Y-85059000D01*
X115740000Y-85859000D02*
X120680000Y-85859000D01*
X115740000Y-86259000D02*
X120857000Y-86259000D01*
X107901000Y-85899000D02*
X112860000Y-85899000D01*
X107999000Y-85699000D02*
X112860000Y-85699000D01*
X109605000Y-95859543D02*
X111005000Y-95859543D01*
X108650000Y-84659000D02*
X119950000Y-84659000D01*
X115740000Y-87099000D02*
X121139000Y-87099000D01*
X107274000Y-88059000D02*
X121326000Y-88059000D01*
X113586000Y-81859000D02*
X115014000Y-81859000D01*
X115740000Y-85939000D02*
X120718000Y-85939000D01*
X109434000Y-83779000D02*
X119166000Y-83779000D01*
X115740000Y-86459000D02*
X120935000Y-86459000D01*
X115740000Y-87219000D02*
X121170000Y-87219000D01*
X115740000Y-86899000D02*
X121082000Y-86899000D01*
X107743000Y-86259000D02*
X112860000Y-86259000D01*
X110154000Y-83179000D02*
X118446000Y-83179000D01*
X109994000Y-83299000D02*
X118606000Y-83299000D01*
X107622000Y-86579000D02*
X112860000Y-86579000D01*
X107581000Y-86699000D02*
X112860000Y-86699000D01*
X108084000Y-85539000D02*
X112860000Y-85539000D01*
X109118000Y-84099000D02*
X119482000Y-84099000D01*
X108128000Y-85459000D02*
X112860000Y-85459000D01*
X115740000Y-87819000D02*
X121292000Y-87819000D01*
X107451000Y-87139000D02*
X112860000Y-87139000D01*
X115740000Y-86659000D02*
X121006000Y-86659000D01*
X110325000Y-83059000D02*
X118275000Y-83059000D01*
X107594000Y-86659000D02*
X112860000Y-86659000D01*
X115740000Y-87779000D02*
X121285000Y-87779000D01*
X109563000Y-83659000D02*
X119037000Y-83659000D01*
X115740000Y-87739000D02*
X121279000Y-87739000D01*
X110506000Y-82939000D02*
X118094000Y-82939000D01*
X107269000Y-88099000D02*
X121331000Y-88099000D01*
X108318000Y-85139000D02*
X112860000Y-85139000D01*
X107495000Y-86979000D02*
X112860000Y-86979000D01*
X110570000Y-82899000D02*
X118030000Y-82899000D01*
X107285000Y-87979000D02*
X121315000Y-87979000D01*
X107810000Y-86099000D02*
X112860000Y-86099000D01*
X115740000Y-86539000D02*
X120964000Y-86539000D01*
X107315000Y-87779000D02*
X112860000Y-87779000D01*
X115740000Y-87539000D02*
X121242000Y-87539000D01*
X110985000Y-82659000D02*
X117615000Y-82659000D01*
X107231000Y-88540000D02*
X121369000Y-88540000D01*
X108806000Y-84459000D02*
X119794000Y-84459000D01*
X109892000Y-83379000D02*
X118708000Y-83379000D01*
X115740000Y-87499000D02*
X121233000Y-87499000D01*
X111303000Y-82499000D02*
X117297000Y-82499000D01*
X107296000Y-87899000D02*
X121304000Y-87899000D01*
X115740000Y-85219000D02*
X120331000Y-85219000D01*
X115740000Y-87859000D02*
X121298000Y-87859000D01*
X108173000Y-85379000D02*
X112860000Y-85379000D01*
X110210000Y-83139000D02*
X118390000Y-83139000D01*
X107472000Y-87059000D02*
X112860000Y-87059000D01*
X110911000Y-82699000D02*
X117689000Y-82699000D01*
X115740000Y-85339000D02*
X120403000Y-85339000D01*
X115740000Y-85499000D02*
X120494000Y-85499000D01*
X115740000Y-87659000D02*
X121264000Y-87659000D01*
X107279000Y-88019000D02*
X121321000Y-88019000D01*
X115740000Y-85459000D02*
X120472000Y-85459000D01*
X109842000Y-83419000D02*
X118758000Y-83419000D01*
X115740000Y-86059000D02*
X120772000Y-86059000D01*
X110444000Y-82979000D02*
X118156000Y-82979000D01*
X107461000Y-87099000D02*
X112860000Y-87099000D01*
X110046000Y-83259000D02*
X118554000Y-83259000D01*
X112362000Y-82099000D02*
X116238000Y-82099000D01*
X107229000Y-88580000D02*
X121371000Y-88580000D01*
X115740000Y-85739000D02*
X120621000Y-85739000D01*
X109009000Y-84219000D02*
X119591000Y-84219000D01*
X107265000Y-88139000D02*
X121335000Y-88139000D01*
X107221000Y-88820000D02*
X121379000Y-88820000D01*
X115740000Y-86939000D02*
X121094000Y-86939000D01*
X115740000Y-85779000D02*
X120641000Y-85779000D01*
X107793000Y-86139000D02*
X112860000Y-86139000D01*
X107542000Y-86819000D02*
X112860000Y-86819000D01*
X115740000Y-85579000D02*
X120538000Y-85579000D01*
X107680000Y-86419000D02*
X112860000Y-86419000D01*
X109231000Y-83979000D02*
X119369000Y-83979000D01*
X107568000Y-86739000D02*
X112860000Y-86739000D01*
X115740000Y-86019000D02*
X120754000Y-86019000D01*
X108620000Y-84699000D02*
X119980000Y-84699000D01*
X107402000Y-87339000D02*
X112860000Y-87339000D01*
X108020000Y-85659000D02*
X112860000Y-85659000D01*
X108533000Y-84819000D02*
X120067000Y-84819000D01*
X109193000Y-84019000D02*
X119407000Y-84019000D01*
X115740000Y-85619000D02*
X120559000Y-85619000D01*
X108422000Y-84979000D02*
X120178000Y-84979000D01*
X107375000Y-87459000D02*
X112860000Y-87459000D01*
X115740000Y-85539000D02*
X120516000Y-85539000D01*
X115740000Y-85299000D02*
X120380000Y-85299000D01*
X107220000Y-88860000D02*
X121380000Y-88860000D01*
X111220000Y-82539000D02*
X117380000Y-82539000D01*
X108974000Y-84259000D02*
X119626000Y-84259000D01*
X107828000Y-86059000D02*
X112860000Y-86059000D01*
X115740000Y-86099000D02*
X120790000Y-86099000D01*
X107302000Y-87859000D02*
X112860000Y-87859000D01*
X111389000Y-82459000D02*
X117211000Y-82459000D01*
X115740000Y-85259000D02*
X120356000Y-85259000D01*
X109519000Y-83699000D02*
X119081000Y-83699000D01*
X109476000Y-83739000D02*
X119124000Y-83739000D01*
X115740000Y-87019000D02*
X121117000Y-87019000D01*
X107236000Y-88460000D02*
X121364000Y-88460000D01*
X107252000Y-88260000D02*
X121348000Y-88260000D01*
X115740000Y-86619000D02*
X120992000Y-86619000D01*
X107651000Y-86499000D02*
X112860000Y-86499000D01*
X115740000Y-87699000D02*
X121272000Y-87699000D01*
X112229000Y-82139000D02*
X116371000Y-82139000D01*
X115740000Y-87619000D02*
X121257000Y-87619000D01*
X107727000Y-86299000D02*
X112860000Y-86299000D01*
X107393000Y-87379000D02*
X112860000Y-87379000D01*
X107224000Y-88700000D02*
X121376000Y-88700000D01*
X107248000Y-88300000D02*
X121352000Y-88300000D01*
X107290000Y-87939000D02*
X121310000Y-87939000D01*
X107308000Y-87819000D02*
X112860000Y-87819000D01*
X107530000Y-86859000D02*
X112860000Y-86859000D01*
X115740000Y-86139000D02*
X120807000Y-86139000D01*
X107430000Y-87219000D02*
X112860000Y-87219000D01*
X115740000Y-86579000D02*
X120978000Y-86579000D01*
X111770000Y-82299000D02*
X116830000Y-82299000D01*
X107245000Y-88340000D02*
X121355000Y-88340000D01*
X108344000Y-85099000D02*
X112860000Y-85099000D01*
X108680000Y-84619000D02*
X119920000Y-84619000D01*
X110267000Y-83099000D02*
X118333000Y-83099000D01*
X115740000Y-86299000D02*
X120873000Y-86299000D01*
X115740000Y-85979000D02*
X120736000Y-85979000D01*
X121420000Y-88940000D02*
G75*
G02*
X107180000Y-88940000I-7120000J0D01*
G01*
X107180000Y-88940000D02*
G75*
G02*
X121420000Y-88940000I7120000J0D01*
G01*
%TO.C,J2*%
X165100000Y-86360000D02*
X165100000Y-96520000D01*
X158750000Y-86360000D02*
X158750000Y-96520000D01*
X166370000Y-86360000D02*
X158750000Y-86360000D01*
X166370000Y-96520000D02*
X166370000Y-86360000D01*
X158750000Y-96520000D02*
X166370000Y-96520000D01*
%TO.C,D2*%
X118310000Y-111940000D02*
X118310000Y-106500000D01*
X118310000Y-106500000D02*
X115370000Y-106500000D01*
X115370000Y-110920000D02*
X118310000Y-110920000D01*
X115370000Y-111160000D02*
X118310000Y-111160000D01*
X115370000Y-111940000D02*
X118310000Y-111940000D01*
X116840000Y-112960000D02*
X116840000Y-111940000D01*
X116840000Y-105480000D02*
X116840000Y-106500000D01*
X115370000Y-111040000D02*
X118310000Y-111040000D01*
X115370000Y-106500000D02*
X115370000Y-111940000D01*
%TO.C,R1*%
X100680000Y-104760000D02*
X100680000Y-108600000D01*
X102520000Y-104760000D02*
X100680000Y-104760000D01*
X101600000Y-109550000D02*
X101600000Y-108600000D01*
X102520000Y-108600000D02*
X102520000Y-104760000D01*
X100680000Y-108600000D02*
X102520000Y-108600000D01*
X101600000Y-103810000D02*
X101600000Y-104760000D01*
%TO.C,J1*%
X101600000Y-88900000D02*
X101600000Y-99060000D01*
X102870000Y-88900000D02*
X95250000Y-88900000D01*
X95250000Y-99060000D02*
X102870000Y-99060000D01*
X95250000Y-88900000D02*
X95250000Y-99060000D01*
X102870000Y-99060000D02*
X102870000Y-88900000D01*
%TO.C,C2*%
X126170000Y-105760000D02*
X126170000Y-118000000D01*
X129540000Y-105420000D02*
X129540000Y-105760000D01*
X129540000Y-118340000D02*
X129540000Y-118000000D01*
X132910000Y-118000000D02*
X132910000Y-105760000D01*
X126170000Y-118000000D02*
X132910000Y-118000000D01*
X132910000Y-105760000D02*
X126170000Y-105760000D01*
%TO.C,D4*%
X146030000Y-92435000D02*
X146030000Y-95525000D01*
X146030000Y-92435170D02*
G75*
G02*
X151580000Y-93980462I2560000J-1544830D01*
G01*
X151580000Y-93979538D02*
G75*
G02*
X146030000Y-95524830I-2990000J-462D01*
G01*
X151090000Y-93980000D02*
G75*
G02*
X146090000Y-93980000I-2500000J0D01*
G01*
X146090000Y-93980000D02*
G75*
G02*
X151090000Y-93980000I2500000J0D01*
G01*
%TO.C,R2*%
X97440000Y-108600000D02*
X97440000Y-104760000D01*
X96520000Y-109550000D02*
X96520000Y-108600000D01*
X96520000Y-103810000D02*
X96520000Y-104760000D01*
X95600000Y-104760000D02*
X95600000Y-108600000D01*
X97440000Y-104760000D02*
X95600000Y-104760000D01*
X95600000Y-108600000D02*
X97440000Y-108600000D01*
%TD*%
M02*
