%TF.GenerationSoftware,KiCad,Pcbnew,9.0.9-9.0.9~ubuntu22.04.1*%
%TF.CreationDate,2026-07-03T14:59:16+05:30*%
%TF.ProjectId,wef,7765662e-6b69-4636-9164-5f7063625858,rev?*%
%TF.SameCoordinates,Original*%
%TF.FileFunction,Copper,L1,Top*%
%TF.FilePolarity,Positive*%
%FSLAX46Y46*%
G04 Gerber Fmt 4.6, Leading zero omitted, Abs format (unit mm)*
G04 Created by KiCad (PCBNEW 9.0.9-9.0.9~ubuntu22.04.1) date 2026-07-03 14:59:16*
%MOMM*%
%LPD*%
G01*
G04 APERTURE LIST*
%TA.AperFunction,NonConductor*%
%ADD10C,0.200000*%
%TD*%
%TA.AperFunction,ComponentPad*%
%ADD11C,1.600000*%
%TD*%
%TA.AperFunction,ComponentPad*%
%ADD12O,1.600000X1.600000*%
%TD*%
%TA.AperFunction,ComponentPad*%
%ADD13R,1.600000X1.600000*%
%TD*%
%TA.AperFunction,ComponentPad*%
%ADD14R,2.200000X2.200000*%
%TD*%
%TA.AperFunction,ComponentPad*%
%ADD15O,2.200000X2.200000*%
%TD*%
%TA.AperFunction,ComponentPad*%
%ADD16C,1.400000*%
%TD*%
%TA.AperFunction,ComponentPad*%
%ADD17O,1.400000X1.400000*%
%TD*%
%TA.AperFunction,ComponentPad*%
%ADD18R,1.905000X2.000000*%
%TD*%
%TA.AperFunction,ComponentPad*%
%ADD19O,1.905000X2.000000*%
%TD*%
%TA.AperFunction,WasherPad*%
%ADD20C,4.000000*%
%TD*%
%TA.AperFunction,ComponentPad*%
%ADD21C,1.800000*%
%TD*%
%TA.AperFunction,ComponentPad*%
%ADD22R,2.400000X2.400000*%
%TD*%
%TA.AperFunction,ComponentPad*%
%ADD23C,2.400000*%
%TD*%
%TA.AperFunction,ComponentPad*%
%ADD24R,3.000000X3.000000*%
%TD*%
%TA.AperFunction,ComponentPad*%
%ADD25C,3.000000*%
%TD*%
%TA.AperFunction,ComponentPad*%
%ADD26R,1.800000X1.800000*%
%TD*%
%TA.AperFunction,ViaPad*%
%ADD27C,0.800000*%
%TD*%
%TA.AperFunction,Conductor*%
%ADD28C,0.200000*%
%TD*%
%TA.AperFunction,Conductor*%
%ADD29C,0.250000*%
%TD*%
G04 APERTURE END LIST*
D10*
X92710000Y-73660000D02*
X171450000Y-73660000D01*
X171450000Y-127000000D01*
X92710000Y-127000000D01*
X92710000Y-73660000D01*
D11*
%TO.P,C1,1*%
%TO.N,Net-(100K1-Pad2)*%
X149860000Y-116720000D03*
D12*
%TO.P,C1,2*%
%TO.N,GND*%
X149860000Y-101720000D03*
%TD*%
D13*
%TO.P,U1,1,GND*%
%TO.N,GND*%
X133360000Y-85100000D03*
D12*
%TO.P,U1,2,TR*%
%TO.N,Net-(100K1-Pad2)*%
X133360000Y-87640000D03*
%TO.P,U1,3,Q*%
%TO.N,Net-(R2-Pad1)*%
X133360000Y-90180000D03*
%TO.P,U1,4,R*%
%TO.N,Net-(C3-Pad1)*%
X133360000Y-92720000D03*
%TO.P,U1,5,CV*%
%TO.N,Net-(C2-Pad1)*%
X140980000Y-92720000D03*
%TO.P,U1,6,THR*%
%TO.N,Net-(100K1-Pad2)*%
X140980000Y-90180000D03*
%TO.P,U1,7,DIS*%
%TO.N,Net-(D1-Pad2)*%
X140980000Y-87640000D03*
%TO.P,U1,8,VCC*%
%TO.N,Net-(C3-Pad1)*%
X140980000Y-85100000D03*
%TD*%
D14*
%TO.P,D1,1,K*%
%TO.N,Net-(100K1-Pad3)*%
X109220000Y-114300000D03*
D15*
%TO.P,D1,2,A*%
%TO.N,Net-(D1-Pad2)*%
X109220000Y-104140000D03*
%TD*%
D16*
%TO.P,R3,1*%
%TO.N,Net-(C3-Pad1)*%
X96320000Y-118360000D03*
D17*
%TO.P,R3,2*%
%TO.N,Net-(D4-Pad2)*%
X103940000Y-118360000D03*
%TD*%
D14*
%TO.P,D3,1,K*%
%TO.N,Net-(C3-Pad1)*%
X139700000Y-111760000D03*
D15*
%TO.P,D3,2,A*%
%TO.N,Net-(D3-Pad2)*%
X139700000Y-101600000D03*
%TD*%
D18*
%TO.P,Q1,1,B*%
%TO.N,Net-(Q1-Pad1)*%
X147320000Y-78740000D03*
D19*
%TO.P,Q1,2,C*%
%TO.N,Net-(D3-Pad2)*%
X149860000Y-78740000D03*
%TO.P,Q1,3,E*%
%TO.N,GND*%
X152400000Y-78740000D03*
%TD*%
D20*
%TO.P,100K1,*%
%TO.N,*%
X127330000Y-69345000D03*
X136830000Y-69345000D03*
D21*
%TO.P,100K1,1,1*%
%TO.N,Net-(100K1-Pad1)*%
X134580000Y-76845000D03*
%TO.P,100K1,2,2*%
%TO.N,Net-(100K1-Pad2)*%
X132080000Y-76845000D03*
%TO.P,100K1,3,3*%
%TO.N,Net-(100K1-Pad3)*%
X129580000Y-76845000D03*
%TD*%
D22*
%TO.P,C3,1*%
%TO.N,Net-(C3-Pad1)*%
X114300000Y-91440000D03*
D23*
%TO.P,C3,2*%
%TO.N,GND*%
X114300000Y-86440000D03*
%TD*%
D24*
%TO.P,J2,1,Pin_1*%
%TO.N,Net-(C3-Pad1)*%
X162560000Y-93980000D03*
D25*
%TO.P,J2,2,Pin_2*%
%TO.N,Net-(D3-Pad2)*%
X162560000Y-88900000D03*
%TD*%
D14*
%TO.P,D2,1,K*%
%TO.N,Net-(D1-Pad2)*%
X116840000Y-114300000D03*
D15*
%TO.P,D2,2,A*%
%TO.N,Net-(100K1-Pad1)*%
X116840000Y-104140000D03*
%TD*%
D16*
%TO.P,R1,1*%
%TO.N,Net-(C3-Pad1)*%
X101600000Y-110490000D03*
D17*
%TO.P,R1,2*%
%TO.N,Net-(D1-Pad2)*%
X101600000Y-102870000D03*
%TD*%
D24*
%TO.P,J1,1,Pin_1*%
%TO.N,GND*%
X99060000Y-96520000D03*
D25*
%TO.P,J1,2,Pin_2*%
%TO.N,Net-(C3-Pad1)*%
X99060000Y-91440000D03*
%TD*%
D11*
%TO.P,C2,1*%
%TO.N,Net-(C2-Pad1)*%
X129540000Y-119380000D03*
D12*
%TO.P,C2,2*%
%TO.N,GND*%
X129540000Y-104380000D03*
%TD*%
D26*
%TO.P,D4,1,K*%
%TO.N,GND*%
X147320000Y-93980000D03*
D21*
%TO.P,D4,2,A*%
%TO.N,Net-(D4-Pad2)*%
X149860000Y-93980000D03*
%TD*%
D16*
%TO.P,R2,1*%
%TO.N,Net-(R2-Pad1)*%
X96520000Y-110490000D03*
D17*
%TO.P,R2,2*%
%TO.N,Net-(Q1-Pad1)*%
X96520000Y-102870000D03*
%TD*%
D27*
%TO.N,Net-(100K1-Pad1)*%
X114300000Y-116840000D03*
X167640000Y-111760000D03*
%TO.N,GND*%
X144780000Y-83820000D03*
%TO.N,Net-(C2-Pad1)*%
X134620000Y-99060000D03*
%TO.N,Net-(C3-Pad1)*%
X137160000Y-88900000D03*
%TD*%
D28*
%TO.N,Net-(100K1-Pad1)*%
X142240000Y-76200000D02*
X139700000Y-78740000D01*
X111760000Y-106680000D02*
X111760000Y-109220000D01*
X116840000Y-104140000D02*
X114300000Y-104140000D01*
X165100000Y-76200000D02*
X142240000Y-76200000D01*
X139700000Y-78740000D02*
X136475000Y-78740000D01*
X111760000Y-114300000D02*
X114300000Y-116840000D01*
X167640000Y-78740000D02*
X165100000Y-76200000D01*
X114300000Y-104140000D02*
X111760000Y-106680000D01*
X111760000Y-109220000D02*
X111760000Y-114300000D01*
X136475000Y-78740000D02*
X134580000Y-76845000D01*
X167640000Y-111760000D02*
X167640000Y-78740000D01*
%TO.N,Net-(100K1-Pad2)*%
X143500000Y-90180000D02*
X140980000Y-90180000D01*
X152520000Y-116720000D02*
X157480000Y-111760000D01*
X152400000Y-88900000D02*
X144780000Y-88900000D01*
X157480000Y-111760000D02*
X157480000Y-93980000D01*
X149860000Y-116720000D02*
X152520000Y-116720000D01*
X157480000Y-93980000D02*
X152400000Y-88900000D01*
X144780000Y-88900000D02*
X143500000Y-90180000D01*
D29*
%TO.N,GND*%
X128280000Y-85100000D02*
X124460000Y-81280000D01*
X119380000Y-81360000D02*
X114300000Y-86440000D01*
X152400000Y-78740000D02*
X152400000Y-83820000D01*
X144780000Y-83820000D02*
X152400000Y-83820000D01*
X119380000Y-81280000D02*
X119380000Y-81360000D01*
X133360000Y-85100000D02*
X128280000Y-85100000D01*
X124460000Y-81280000D02*
X119380000Y-81280000D01*
D28*
%TO.N,Net-(C2-Pad1)*%
X132080000Y-119380000D02*
X134620000Y-116840000D01*
X134620000Y-111760000D02*
X134620000Y-99060000D01*
X129540000Y-119380000D02*
X132080000Y-119380000D01*
X134620000Y-116840000D02*
X134620000Y-111760000D01*
D29*
%TO.N,Net-(C3-Pad1)*%
X104140000Y-96520000D02*
X99060000Y-91440000D01*
X128635479Y-89804521D02*
X130444521Y-89804521D01*
X152400000Y-119380000D02*
X147320000Y-119380000D01*
X162560000Y-109220000D02*
X152400000Y-119380000D01*
X153680000Y-85100000D02*
X162560000Y-93980000D01*
X130444521Y-89804521D02*
X133360000Y-92720000D01*
X162560000Y-93980000D02*
X162560000Y-109220000D01*
X104140000Y-96520000D02*
X109220000Y-96520000D01*
X137160000Y-88900000D02*
X137180000Y-88900000D01*
X106680000Y-99060000D02*
X104140000Y-96520000D01*
X114300000Y-91440000D02*
X127000000Y-91440000D01*
X106680000Y-109220000D02*
X106680000Y-99060000D01*
X101600000Y-110490000D02*
X102870000Y-111760000D01*
X137180000Y-88900000D02*
X140980000Y-85100000D01*
X147320000Y-119380000D02*
X139700000Y-111760000D01*
X102870000Y-111760000D02*
X104140000Y-111760000D01*
X140980000Y-85100000D02*
X153680000Y-85100000D01*
X104140000Y-111760000D02*
X106680000Y-109220000D01*
X109220000Y-96520000D02*
X114300000Y-91440000D01*
X127000000Y-91440000D02*
X128635479Y-89804521D01*
D28*
%TO.N,Net-(D1-Pad2)*%
X114300000Y-101600000D02*
X111760000Y-101600000D01*
X140980000Y-87640000D02*
X134640000Y-93980000D01*
X121920000Y-93980000D02*
X114300000Y-101600000D01*
X134640000Y-93980000D02*
X121920000Y-93980000D01*
X111760000Y-101600000D02*
X109220000Y-104140000D01*
%TO.N,Net-(D4-Pad2)*%
X147320000Y-96520000D02*
X149860000Y-93980000D01*
X119380000Y-119380000D02*
X124460000Y-114300000D01*
X104960000Y-119380000D02*
X119380000Y-119380000D01*
X103940000Y-118360000D02*
X104960000Y-119380000D01*
X124460000Y-114300000D02*
X124460000Y-99060000D01*
X127000000Y-96520000D02*
X147320000Y-96520000D01*
X124460000Y-99060000D02*
X127000000Y-96520000D01*
%TO.N,Net-(R2-Pad1)*%
X134459511Y-86199511D02*
X134459511Y-84000489D01*
X99719022Y-93239511D02*
X101185988Y-94706477D01*
X127000000Y-88900000D02*
X127000000Y-86360000D01*
X133360000Y-90180000D02*
X131420362Y-90180000D01*
X98314617Y-93239511D02*
X99719022Y-93239511D01*
X109215106Y-78740000D02*
X97260489Y-90694617D01*
X134459511Y-84000489D02*
X129199022Y-78740000D01*
X97260489Y-90694617D02*
X97260489Y-92185383D01*
X99060000Y-109220000D02*
X97790000Y-110490000D01*
X129199022Y-78740000D02*
X109215106Y-78740000D01*
X101185988Y-99060000D02*
X99060000Y-101185988D01*
X131420362Y-90180000D02*
X130620362Y-89380001D01*
X97790000Y-110490000D02*
X96520000Y-110490000D01*
X130620362Y-89380001D02*
X127480001Y-89380001D01*
X127000000Y-86360000D02*
X127160489Y-86199511D01*
X97260489Y-92185383D02*
X98314617Y-93239511D01*
X99060000Y-101185988D02*
X99060000Y-109220000D01*
X127480001Y-89380001D02*
X127000000Y-88900000D01*
X101185988Y-94706477D02*
X101185988Y-99060000D01*
X127160489Y-86199511D02*
X134459511Y-86199511D01*
%TD*%
M02*
